<svg width="55" height="55" viewBox="0 0 55 55" fill="none" xmlns="http://www.w3.org/2000/svg">
<path d="M13.75 16.0416H25.2084C25.8162 16.0416 26.3991 16.2831 26.8288 16.7128C27.2586 17.1426 27.5 17.7255 27.5 18.3333C27.5 18.9411 27.2586 19.524 26.8288 19.9537C26.3991 20.3835 25.8162 20.625 25.2084 20.625H13.75C13.1423 20.625 12.5594 20.3835 12.1296 19.9537C11.6998 19.524 11.4584 18.9411 11.4584 18.3333C11.4584 17.7255 11.6998 17.1426 12.1296 16.7128C12.5594 16.2831 13.1423 16.0416 13.75 16.0416ZM29.7917 34.375H41.25C41.8578 34.375 42.4407 34.6164 42.8705 35.0462C43.3003 35.4759 43.5417 36.0588 43.5417 36.6666C43.5417 37.2744 43.3003 37.8573 42.8705 38.2871C42.4407 38.7168 41.8578 38.9583 41.25 38.9583H29.7917C29.1839 38.9583 28.601 38.7168 28.1713 38.2871C27.7415 37.8573 27.5 37.2744 27.5 36.6666C27.5 36.0588 27.7415 35.4759 28.1713 35.0462C28.601 34.6164 29.1839 34.375 29.7917 34.375ZM13.75 25.2083H41.25C41.8578 25.2083 42.4407 25.4497 42.8705 25.8795C43.3003 26.3093 43.5417 26.8922 43.5417 27.5C43.5417 28.1077 43.3003 28.6906 42.8705 29.1204C42.4407 29.5502 41.8578 29.7916 41.25 29.7916H13.75C13.1423 29.7916 12.5594 29.5502 12.1296 29.1204C11.6998 28.6906 11.4584 28.1077 11.4584 27.5C11.4584 26.8922 11.6998 26.3093 12.1296 25.8795C12.5594 25.4497 13.1423 25.2083 13.75 25.2083Z" fill="white"/>
</svg>
