<svg width="303" height="303" viewBox="0 0 303 303" fill="none" xmlns="http://www.w3.org/2000/svg">
<g clip-path="url(#clip0_82_114)">
<path d="M133.85 103.998C127.193 109.365 126.435 121.696 130.124 128.8C130.571 130.478 131.857 131.932 132.92 132.547C135.799 134.925 139.602 135.709 143.489 135.123C147.683 134.005 150.061 131.126 150.845 127.323C151.321 124.051 149.896 120.388 146.932 119.381C145.339 118.457 142.598 118.289 139.382 121.392C138.766 122.454 138.459 122.986 139.213 124.132C140.276 124.748 141.115 124.524 141.954 124.301C142.569 123.238 144.555 122.26 145.617 122.876C146.679 123.491 147.658 125.477 147.266 127.378C147.181 128.748 146.482 131.181 143.126 132.075C138.931 133.192 135.744 131.346 133.788 127.375C130.322 121.11 131.527 110.457 136.422 106.907C139.861 104.643 144.811 104.672 150.515 105.848C154.904 110.519 160.439 114.435 165.612 115.303C168.184 118.212 170.14 122.183 167.371 126.964C167.063 127.495 166.755 128.026 167.286 128.334C166.979 128.865 166.979 128.865 166.14 129.088C165.832 129.62 165.832 129.62 165.524 130.151C162.616 132.723 160.546 135.071 158.699 138.258C146.112 155.088 132.602 173.512 117.051 189.335C117.358 188.804 117.666 188.272 117.974 187.741C125.89 175.3 131.656 153.099 131.213 137.944C127.044 147.59 126.454 157.18 119.853 166.127C114.706 173.787 111.544 180.469 107.991 189.053C103.514 199.23 90.3407 212.173 79.1819 219.189L81.1675 218.211C80.3286 218.434 79.1819 219.189 78.343 219.412C78.343 219.412 79.1819 219.189 79.4896 218.658L71.2396 223.102C69.5618 223.548 68.1074 224.834 66.4296 225.281C65.5906 225.505 64.9752 226.567 65.7299 227.714L66.2611 228.022C66.7923 228.329 67.3235 228.637 68.1624 228.414C78.6215 223.83 88.0182 218.632 96.9679 211.755C106.112 210.667 116.234 211.565 126.133 211.623C146.769 211.516 155.777 194.741 166.91 179.197C156.114 189.261 139.39 197.31 127.645 200.438C120.626 202.758 111.175 204.377 102.478 207.143C125.663 187.939 144.852 162.162 162.502 139.042C165.187 135.631 167.873 132.221 170.027 128.502C173.243 125.399 176.375 123.666 179.423 123.304C182.611 125.15 186.413 125.934 190.216 126.718C193.627 129.403 196.114 133.682 196.085 138.631C196.726 146.097 193.565 152.78 186.685 157.308C182.098 160.326 176.702 158.619 172.984 156.465C169.265 154.311 166.246 149.725 167.115 144.552C168.206 140.218 171.031 139.016 173.24 138.877C176.288 138.514 179.783 139.83 180.761 141.815C180.761 141.815 180.984 142.654 180.677 143.185C180.145 142.877 179.614 142.57 179.922 142.039C179.167 140.892 178.328 141.115 177.182 141.87C176.035 142.625 176.258 143.464 176.482 144.303C177.237 145.449 178.83 146.372 179.893 146.988L180.424 147.296C181.486 147.911 182.325 147.688 182.633 147.156C184.703 144.808 185.402 142.376 183.893 140.082C182.16 136.95 177.072 134.712 172.346 135.521C167.62 136.331 164.403 139.434 163.312 143.768C161.912 148.633 164.316 154.282 168.481 158.114C169.012 158.422 169.767 159.568 170.83 160.184C176.365 164.1 183.523 163.99 188.11 160.971C196.137 155.688 200.221 147.413 198.825 138.8C198.239 134.913 196.814 131.249 194.55 127.809C211.076 127.45 227.968 116.661 235.074 99.494C241.258 83.9206 231.923 65.7427 213.775 70.1281C220.321 57.6027 188.42 44.0887 182.489 55.5518C181.426 54.9363 180.895 54.6286 179.525 54.5444C161.211 48.1923 138.025 67.3964 139.055 86.439C139.334 90.8572 142.045 95.9749 146.126 101.177C141.484 100.617 137.29 101.734 133.85 103.998ZM171.371 120.058C172.433 120.673 173.188 121.82 174.251 122.436C173.412 122.659 172.265 123.414 171.118 124.168C171.51 122.267 171.287 121.428 171.371 120.058Z" fill="#136207"/>
</g>
<defs>
<clipPath id="clip0_82_114">
<rect width="221.617" height="221.617" fill="white" transform="translate(111.087) rotate(30.0832)"/>
</clipPath>
</defs>
</svg>
