<svg width="81" height="82" viewBox="0 0 81 82" fill="none" xmlns="http://www.w3.org/2000/svg">
<path d="M79.4721 34.6168C78.7007 31.6888 77.3737 28.9865 75.5671 26.6641C73.7604 24.3418 71.5094 22.445 68.9427 21.0821C66.376 19.7193 63.5438 18.917 60.608 18.7211C57.6723 18.5252 54.6904 18.9396 51.8327 19.9406L45.9031 22.0162L44.3012 15.9415C42.742 10.029 38.9541 5.16124 33.7707 2.40894C28.5873 -0.34337 22.4331 -0.75472 16.6618 1.26538C10.8906 3.28547 5.9751 7.57154 2.99671 13.1807C0.0183288 18.7898 -0.778977 25.2626 0.780194 31.1751L2.38215 37.2497L14.1399 81.8355L57.6609 66.602L63.5905 64.5264C66.4485 63.5268 69.1265 61.9601 71.4715 59.9158C73.8165 57.8715 75.7826 55.3897 77.2575 52.6121C78.7323 49.8346 79.687 46.8157 80.067 43.728C80.447 40.6403 80.2448 37.5443 79.4721 34.6168Z" fill="#EF1C1C"/>
</svg>
