<svg width="350" height="329" viewBox="0 0 350 329" fill="none" xmlns="http://www.w3.org/2000/svg">
<path d="M230.496 132.094C230.229 133.933 230.169 136.928 230.317 141.081C230.317 141.081 241.916 125.866 256.747 122.013C256.747 122.013 243.903 130.286 231.147 145.708C231.147 145.708 240.253 139.896 257.219 144.614C257.219 144.614 272.169 134.769 275.168 111.545C263.037 107.154 238.27 112.192 232.159 118.064C229.786 121.475 229.874 128.623 230.496 132.094Z" fill="#081219" fill-opacity="0.19"/>
<path d="M239.394 148.408C222.249 152.677 220.615 176.85 202.996 181.801C222.127 181.952 240.636 178.632 259.204 172.317C238.203 185.038 211.181 187.497 187.838 190.489C225.06 208.291 282.305 204.591 290.469 153.576C273.324 157.844 256.271 145.978 239.394 148.408Z" fill="#081219" fill-opacity="0.19"/>
<path d="M263.378 228.88C251.458 202.362 219.423 213.481 198.839 205.232C212.303 223.713 237.277 219.83 249.732 242.671C239.145 230.241 221.912 227.362 208.685 220.182C195.932 212.321 186.027 200.366 172.532 195.025C187.004 209.146 188.84 232.697 204.944 245.927C224.666 262.688 255.484 254.773 277.372 266.966C272.569 253.5 269.605 240.3 263.378 228.88Z" fill="#081219" fill-opacity="0.19"/>
<path d="M158.088 191.05C158.088 191.05 144.323 210.832 132.516 224.889C141.387 207.776 155.359 189.151 155.359 189.151C104.703 163.014 104.816 203.589 108.107 211.954C111.813 222.632 118.009 247.192 118.009 247.192C118.009 247.192 142.034 244.674 154.492 244.231C162.115 243.461 199.726 230.148 158.088 191.05Z" fill="#081219" fill-opacity="0.19"/>
<path d="M154.8 159.401C158.714 171.236 159.424 181.854 159.424 181.854C166.871 166.788 199.918 128.026 199.918 128.026C199.918 128.026 174.374 172.009 163.517 184.702C232.33 178.928 223.645 140.487 225.55 91.1909C203.926 100.442 143.238 114.908 154.8 159.401Z" fill="#081219" fill-opacity="0.19"/>
<path d="M171.328 105.094C182.038 88.2484 184.65 72.8549 184.65 72.8549C186.19 88.1006 175.955 104.264 175.955 104.264C183.638 100.498 189.896 98.7789 197.579 95.013C200.279 86.7678 197.079 62.2677 188.746 52.4193C167.33 62.8273 163.975 80.7418 163.975 80.7418C173.613 94.5353 171.328 105.094 171.328 105.094Z" fill="#081219" fill-opacity="0.19"/>
<path d="M120.042 122.055C126.002 135.314 135.58 152.103 144.863 160.587C138.875 137.184 131.789 110.993 137.102 87.354C136.951 106.485 140.953 125.468 147.742 143.355C146.825 131.579 156.673 123.246 162.161 113.904C177.825 91.3933 146.12 74.3936 144.017 52.6818C119.071 66.7079 107.44 95.0618 120.042 122.055Z" fill="#081219" fill-opacity="0.19"/>
<path d="M109.776 151.357C97.2903 141.656 89.7586 126.291 74.4248 120.683C100.17 124.424 105.209 149.191 127.216 155.393C123.39 150.706 117.786 142.756 115.859 135.341C108.952 100.163 71.6397 98.4967 42.72 103.683C61.7599 119.97 64.3658 151.143 87.6179 164.286C104.938 174.314 128.341 168.325 146.611 176.989C135.757 166.398 121.105 161.265 109.776 151.357Z" fill="#081219" fill-opacity="0.19"/>
</svg>
